<?xml version="1.0" encoding="UTF-8" standalone="no"?>
<svg
   xmlns:dc="http://purl.org/dc/elements/1.1/"
   xmlns:cc="http://creativecommons.org/ns#"
   xmlns:rdf="http://www.w3.org/1999/02/22-rdf-syntax-ns#"
   xmlns:svg="http://www.w3.org/2000/svg"
   xmlns="http://www.w3.org/2000/svg"
   viewBox="0 0 793.70135 1122.52"
   height="1122.52"
   width="793.70135"
   xml:space="preserve"
   id="svg2"
   version="1.1"><metadata
     id="metadata8"><rdf:RDF><cc:Work
         rdf:about=""><dc:format>image/svg+xml</dc:format><dc:type
           rdf:resource="http://purl.org/dc/dcmitype/StillImage" /></cc:Work></rdf:RDF></metadata><defs
     id="defs6"><clipPath
       id="clipPath18"
       clipPathUnits="userSpaceOnUse"><path
         id="path16"
         d="M 0,841.89 H 595.276 V 0 H 0 Z" /></clipPath><clipPath
       id="clipPath212"
       clipPathUnits="userSpaceOnUse"><path
         id="path210"
         d="m 201.404,549.634 c 0,-59.202 47.993,-107.196 107.194,-107.196 v 0 c 59.203,0 107.196,47.994 107.196,107.196 v 0 c 0,59.202 -47.993,107.195 -107.196,107.195 v 0 c -59.201,0 -107.194,-47.993 -107.194,-107.195" /></clipPath><linearGradient
       id="linearGradient226"
       spreadMethod="pad"
       gradientTransform="matrix(214.38983,0,0,-214.38983,201.40405,549.63361)"
       gradientUnits="userSpaceOnUse"
       y2="0"
       x2="1"
       y1="0"
       x1="0"><stop
         id="stop218"
         offset="0"
         style="stop-opacity:1;stop-color:#979797" /><stop
         id="stop220"
         offset="0.222781"
         style="stop-opacity:1;stop-color:#373838" /><stop
         id="stop222"
         offset="0.787404"
         style="stop-opacity:1;stop-color:#272727" /><stop
         id="stop224"
         offset="1"
         style="stop-opacity:1;stop-color:#1e130f" /></linearGradient><clipPath
       id="clipPath236"
       clipPathUnits="userSpaceOnUse"><path
         id="path234"
         d="M 0,841.89 H 595.276 V 0 H 0 Z" /></clipPath><linearGradient
       id="linearGradient244"
       spreadMethod="pad"
       gradientTransform="matrix(217.39,0,0,217.39,-1.4998,841.8894)"
       gradientUnits="userSpaceOnUse"
       y2="0"
       x2="1"
       y1="0"
       x1="0"><stop
         id="stop240"
         offset="0"
         style="stop-opacity:1;stop-color:#dcd9d9" /><stop
         id="stop242"
         offset="1"
         style="stop-opacity:1;stop-color:#1e130f" /></linearGradient><clipPath
       id="clipPath254"
       clipPathUnits="userSpaceOnUse"><path
         id="path252"
         d="m 300.078,517.693 44.502,44.502 -44.502,45.697 z" /></clipPath><linearGradient
       id="linearGradient266"
       spreadMethod="pad"
       gradientTransform="matrix(44.501797,0,0,-44.501797,300.07825,562.79291)"
       gradientUnits="userSpaceOnUse"
       y2="0"
       x2="1"
       y1="0"
       x1="0"><stop
         id="stop260"
         offset="0"
         style="stop-opacity:1;stop-color:#979797" /><stop
         id="stop262"
         offset="0.639665"
         style="stop-opacity:1;stop-color:#272727" /><stop
         id="stop264"
         offset="1"
         style="stop-opacity:1;stop-color:#1e130f" /></linearGradient><clipPath
       id="clipPath276"
       clipPathUnits="userSpaceOnUse"><path
         id="path274"
         d="M 0,841.89 H 595.276 V 0 H 0 Z" /></clipPath><linearGradient
       id="linearGradient284"
       spreadMethod="pad"
       gradientTransform="matrix(48.1091,0,0,48.1091,-1.5001,886.9557)"
       gradientUnits="userSpaceOnUse"
       y2="0"
       x2="1"
       y1="0"
       x1="0"><stop
         id="stop280"
         offset="0"
         style="stop-opacity:1;stop-color:#dcd9d9" /><stop
         id="stop282"
         offset="1"
         style="stop-opacity:1;stop-color:#1e130f" /></linearGradient><clipPath
       id="clipPath298"
       clipPathUnits="userSpaceOnUse"><path
         id="path296"
         d="m 358.953,481.649 -34.4,47.147 z" /></clipPath><linearGradient
       id="linearGradient308"
       spreadMethod="pad"
       gradientTransform="matrix(34.400825,0,0,-34.400825,324.5527,505.22244)"
       gradientUnits="userSpaceOnUse"
       y2="0"
       x2="1"
       y1="0"
       x1="0"><stop
         id="stop304"
         offset="0"
         style="stop-opacity:1;stop-color:#ffffff" /><stop
         id="stop306"
         offset="1"
         style="stop-opacity:1;stop-color:#1e130f" /></linearGradient><clipPath
       id="clipPath318"
       clipPathUnits="userSpaceOnUse"><path
         id="path316"
         d="M 0,841.89 H 595.276 V 0 H 0 Z" /></clipPath><clipPath
       id="clipPath330"
       clipPathUnits="userSpaceOnUse"><path
         id="path328"
         d="m 276.794,476.12 h 11.329 v 145.951 h -11.329 z" /></clipPath><linearGradient
       id="linearGradient340"
       spreadMethod="pad"
       gradientTransform="matrix(11.329964,0,0,-13.889216,276.79376,549.09552)"
       gradientUnits="userSpaceOnUse"
       y2="0"
       x2="1"
       y1="0"
       x1="0"><stop
         id="stop336"
         offset="0"
         style="stop-opacity:1;stop-color:#ffffff" /><stop
         id="stop338"
         offset="1"
         style="stop-opacity:1;stop-color:#1e130f" /></linearGradient><clipPath
       id="clipPath350"
       clipPathUnits="userSpaceOnUse"><path
         id="path348"
         d="M 0,841.89 H 595.276 V 0 H 0 Z" /></clipPath></defs><g
     transform="matrix(1.3333333,0,0,-1.3333333,0,1122.52)"
     id="g10"><g
       id="g12"><g
         clip-path="url(#clipPath18)"
         id="g14"><g
           transform="translate(86.5742,332.0099)"
           id="g20"><path
             id="path22"
             style="fill:#facf39;fill-opacity:1;fill-rule:nonzero;stroke:none"
             d="M 0,0 C -2.59,6.906 -3.918,10.227 -4.383,11.787 H -4.416 C -4.98,10.027 -6.475,5.91 -8.566,0 Z m -9.197,-1.66 -2.955,-8.035 h -1.827 l 8.534,23.242 H -3.32 L 5.578,-9.695 H 3.619 L 0.598,-1.66 Z" /></g><g
           transform="translate(86.5742,332.0099)"
           id="g24"><path
             id="path26"
             style="fill:none;stroke:#efc740;stroke-width:1;stroke-linecap:butt;stroke-linejoin:miter;stroke-miterlimit:10;stroke-dasharray:none;stroke-opacity:1"
             d="M 0,0 C -2.59,6.906 -3.918,10.227 -4.383,11.787 H -4.416 C -4.98,10.027 -6.475,5.91 -8.566,0 Z m -9.197,-1.66 -2.955,-8.035 h -1.827 l 8.534,23.242 H -3.32 L 5.578,-9.695 H 3.619 L 0.598,-1.66 Z" /></g><g
           transform="translate(97.0376,345.5568)"
           id="g28"><path
             id="path30"
             style="fill:#facf39;fill-opacity:1;fill-rule:nonzero;stroke:none"
             d="m 0,0 v -14.078 c 0,-6.176 3.486,-7.77 6.773,-7.77 3.885,0 6.774,1.627 6.774,7.77 V 0 h 1.826 v -13.979 c 0,-7.271 -3.852,-9.529 -8.666,-9.529 -4.582,0 -8.566,2.49 -8.566,9.231 V 0 Z" /></g><g
           transform="translate(97.0376,345.5568)"
           id="g32"><path
             id="path34"
             style="fill:none;stroke:#efc740;stroke-width:1;stroke-linecap:butt;stroke-linejoin:miter;stroke-miterlimit:10;stroke-dasharray:none;stroke-opacity:1"
             d="m 0,0 v -14.078 c 0,-6.176 3.486,-7.77 6.773,-7.77 3.885,0 6.774,1.627 6.774,7.77 V 0 h 1.826 v -13.979 c 0,-7.271 -3.852,-9.529 -8.666,-9.529 -4.582,0 -8.566,2.49 -8.566,9.231 V 0 Z" /></g><g
           transform="translate(123.8037,343.8966)"
           id="g36"><path
             id="path38"
             style="fill:#facf39;fill-opacity:1;fill-rule:nonzero;stroke:none"
             d="M 0,0 H -7.803 V 1.66 H 9.662 V 0 H 1.826 V -21.582 H 0 Z" /></g><g
           transform="translate(123.8037,343.8966)"
           id="g40"><path
             id="path42"
             style="fill:none;stroke:#efc740;stroke-width:1;stroke-linecap:butt;stroke-linejoin:miter;stroke-miterlimit:10;stroke-dasharray:none;stroke-opacity:1"
             d="M 0,0 H -7.803 V 1.66 H 9.662 V 0 H 1.826 V -21.582 H 0 Z" /></g><g
           transform="translate(136.8228,334.0353)"
           id="g44"><path
             id="path46"
             style="fill:#facf39;fill-opacity:1;fill-rule:nonzero;stroke:none"
             d="m 0,0 c 0,-5.346 2.955,-10.393 8.533,-10.393 6.01,0 8.533,4.914 8.533,10.426 0,5.412 -2.855,10.16 -8.466,10.16 C 2.623,10.193 0,5.246 0,0 m 18.992,0.066 c 0,-6.341 -3.387,-12.119 -10.558,-12.119 -6.541,0 -10.36,5.28 -10.36,11.953 0,6.575 3.686,11.954 10.592,11.954 6.375,0 10.326,-5.014 10.326,-11.788" /></g><g
           transform="translate(136.8228,334.0353)"
           id="g48"><path
             id="path50"
             style="fill:none;stroke:#efc740;stroke-width:1;stroke-linecap:butt;stroke-linejoin:miter;stroke-miterlimit:10;stroke-dasharray:none;stroke-opacity:1"
             d="m 0,0 c 0,-5.346 2.955,-10.393 8.533,-10.393 6.01,0 8.533,4.914 8.533,10.426 0,5.412 -2.855,10.16 -8.466,10.16 C 2.623,10.193 0,5.246 0,0 Z m 18.992,0.066 c 0,-6.341 -3.387,-12.119 -10.558,-12.119 -6.541,0 -10.36,5.28 -10.36,11.953 0,6.575 3.686,11.954 10.592,11.954 6.375,0 10.326,-5.014 10.326,-11.788 z" /></g><g
           transform="translate(181.0542,333.006)"
           id="g52"><path
             id="path54"
             style="fill:#facf39;fill-opacity:1;fill-rule:nonzero;stroke:none"
             d="m 0,0 c 0,4.549 0.033,8.898 0.133,11.223 h -0.1 C -0.896,8.102 -5.611,-3.354 -8.566,-10.691 h -1.76 c -2.225,5.677 -7.106,18.427 -8.168,21.947 h -0.067 c 0.166,-2.656 0.233,-8.068 0.233,-12.053 v -9.894 h -1.793 v 23.242 h 2.689 c 3.188,-7.969 7.205,-18.395 8.069,-21.018 h 0.066 c 0.531,1.694 5.18,13.281 8.434,21.018 H 1.793 V -10.691 H 0 Z" /></g><g
           transform="translate(181.0542,333.006)"
           id="g56"><path
             id="path58"
             style="fill:none;stroke:#efc740;stroke-width:1;stroke-linecap:butt;stroke-linejoin:miter;stroke-miterlimit:10;stroke-dasharray:none;stroke-opacity:1"
             d="m 0,0 c 0,4.549 0.033,8.898 0.133,11.223 h -0.1 C -0.896,8.102 -5.611,-3.354 -8.566,-10.691 h -1.76 c -2.225,5.677 -7.106,18.427 -8.168,21.947 h -0.067 c 0.166,-2.656 0.233,-8.068 0.233,-12.053 v -9.894 h -1.793 v 23.242 h 2.689 c 3.188,-7.969 7.205,-18.395 8.069,-21.018 h 0.066 c 0.531,1.694 5.18,13.281 8.434,21.018 H 1.793 V -10.691 H 0 Z" /></g><g
           transform="translate(200.9482,332.0099)"
           id="g60"><path
             id="path62"
             style="fill:#facf39;fill-opacity:1;fill-rule:nonzero;stroke:none"
             d="M 0,0 C -2.59,6.906 -3.918,10.227 -4.383,11.787 H -4.416 C -4.98,10.027 -6.475,5.91 -8.566,0 Z m -9.197,-1.66 -2.955,-8.035 h -1.827 l 8.534,23.242 H -3.32 L 5.578,-9.695 H 3.619 L 0.598,-1.66 Z" /></g><g
           transform="translate(200.9482,332.0099)"
           id="g64"><path
             id="path66"
             style="fill:none;stroke:#efc740;stroke-width:1;stroke-linecap:butt;stroke-linejoin:miter;stroke-miterlimit:10;stroke-dasharray:none;stroke-opacity:1"
             d="M 0,0 C -2.59,6.906 -3.918,10.227 -4.383,11.787 H -4.416 C -4.98,10.027 -6.475,5.91 -8.566,0 Z m -9.197,-1.66 -2.955,-8.035 h -1.827 l 8.534,23.242 H -3.32 L 5.578,-9.695 H 3.619 L 0.598,-1.66 Z" /></g><g
           transform="translate(220.0781,322.3146)"
           id="g68"><path
             id="path70"
             style="fill:#facf39;fill-opacity:1;fill-rule:nonzero;stroke:none"
             d="m 0,0 -1.361,-1.826 c 1.228,-0.133 3.453,-0.797 3.453,-3.055 0,-2.49 -2.125,-3.088 -3.686,-3.088 -1.228,0 -1.959,0.233 -2.39,0.432 v 1.627 c 0.63,-0.299 1.759,-0.465 2.39,-0.465 1.295,0 1.992,0.465 1.992,1.361 0,1.428 -1.859,1.76 -3.818,1.76 v 0.764 l 1.992,2.822 z M 7.736,6.209 C 6.641,2.523 3.918,-0.266 -0.996,-0.266 c -6.674,0 -10.193,5.313 -10.193,11.854 0,6.275 3.453,11.986 10.226,11.986 5.014,0 7.969,-2.789 8.733,-6.674 H 5.977 c -1.063,3.022 -3.022,5.014 -7.039,5.014 -5.778,0 -8.202,-5.279 -8.202,-10.293 0,-4.98 2.391,-10.226 8.334,-10.226 3.785,0 5.711,1.959 6.873,4.814 z" /></g><g
           transform="translate(220.0781,322.3146)"
           id="g72"><path
             id="path74"
             style="fill:none;stroke:#efc740;stroke-width:1;stroke-linecap:butt;stroke-linejoin:miter;stroke-miterlimit:10;stroke-dasharray:none;stroke-opacity:1"
             d="m 0,0 -1.361,-1.826 c 1.228,-0.133 3.453,-0.797 3.453,-3.055 0,-2.49 -2.125,-3.088 -3.686,-3.088 -1.228,0 -1.959,0.233 -2.39,0.432 v 1.627 c 0.63,-0.299 1.759,-0.465 2.39,-0.465 1.295,0 1.992,0.465 1.992,1.361 0,1.428 -1.859,1.76 -3.818,1.76 v 0.764 l 1.992,2.822 z M 7.736,6.209 C 6.641,2.523 3.918,-0.266 -0.996,-0.266 c -6.674,0 -10.193,5.313 -10.193,11.854 0,6.275 3.453,11.986 10.226,11.986 5.014,0 7.969,-2.789 8.733,-6.674 H 5.977 c -1.063,3.022 -3.022,5.014 -7.039,5.014 -5.778,0 -8.202,-5.279 -8.202,-10.293 0,-4.98 2.391,-10.226 8.334,-10.226 3.785,0 5.711,1.959 6.873,4.814 z" /></g><g
           transform="translate(244.1875,332.0099)"
           id="g76"><path
             id="path78"
             style="fill:#facf39;fill-opacity:1;fill-rule:nonzero;stroke:none"
             d="M 0,0 C -2.59,6.906 -3.918,10.227 -4.383,11.787 H -4.416 C -4.98,10.027 -6.475,5.91 -8.566,0 Z m -9.895,15.971 v 0.431 c 0,2.192 1.03,3.022 2.59,3.022 1.959,0 4.217,-1.893 5.578,-1.893 0.731,0 1.163,0.365 1.163,1.627 V 19.59 H 0.83 v -0.598 c 0,-2.224 -0.93,-3.021 -2.523,-3.021 -1.959,0 -4.051,1.959 -5.645,1.959 -0.631,0 -1.062,-0.366 -1.062,-1.362 v -0.597 z m 0.698,-17.631 -2.955,-8.035 h -1.827 l 8.534,23.242 H -3.32 L 5.578,-9.695 H 3.619 L 0.598,-1.66 Z" /></g><g
           transform="translate(244.1875,332.0099)"
           id="g80"><path
             id="path82"
             style="fill:none;stroke:#efc740;stroke-width:1;stroke-linecap:butt;stroke-linejoin:miter;stroke-miterlimit:10;stroke-dasharray:none;stroke-opacity:1"
             d="M 0,0 C -2.59,6.906 -3.918,10.227 -4.383,11.787 H -4.416 C -4.98,10.027 -6.475,5.91 -8.566,0 Z m -9.895,15.971 v 0.431 c 0,2.192 1.03,3.022 2.59,3.022 1.959,0 4.217,-1.893 5.578,-1.893 0.731,0 1.163,0.365 1.163,1.627 V 19.59 H 0.83 v -0.598 c 0,-2.224 -0.93,-3.021 -2.523,-3.021 -1.959,0 -4.051,1.959 -5.645,1.959 -0.631,0 -1.062,-0.366 -1.062,-1.362 v -0.597 z m 0.698,-17.631 -2.955,-8.035 h -1.827 l 8.534,23.242 H -3.32 L 5.578,-9.695 H 3.619 L 0.598,-1.66 Z" /></g><g
           transform="translate(254.0537,334.0353)"
           id="g84"><path
             id="path86"
             style="fill:#facf39;fill-opacity:1;fill-rule:nonzero;stroke:none"
             d="m 0,0 c 0,-5.346 2.955,-10.393 8.533,-10.393 6.01,0 8.533,4.914 8.533,10.426 0,5.412 -2.855,10.16 -8.466,10.16 C 2.623,10.193 0,5.246 0,0 m 18.992,0.066 c 0,-6.341 -3.387,-12.119 -10.558,-12.119 -6.541,0 -10.36,5.28 -10.36,11.953 0,6.575 3.686,11.954 10.592,11.954 6.375,0 10.326,-5.014 10.326,-11.788" /></g><g
           transform="translate(254.0537,334.0353)"
           id="g88"><path
             id="path90"
             style="fill:none;stroke:#efc740;stroke-width:1;stroke-linecap:butt;stroke-linejoin:miter;stroke-miterlimit:10;stroke-dasharray:none;stroke-opacity:1"
             d="m 0,0 c 0,-5.346 2.955,-10.393 8.533,-10.393 6.01,0 8.533,4.914 8.533,10.426 0,5.412 -2.855,10.16 -8.466,10.16 C 2.623,10.193 0,5.246 0,0 Z m 18.992,0.066 c 0,-6.341 -3.387,-12.119 -10.558,-12.119 -6.541,0 -10.36,5.28 -10.36,11.953 0,6.575 3.686,11.954 10.592,11.954 6.375,0 10.326,-5.014 10.326,-11.788 z" /></g><path
           id="path92"
           style="fill:#facf39;fill-opacity:1;fill-rule:nonzero;stroke:#efc740;stroke-width:1;stroke-linecap:butt;stroke-linejoin:miter;stroke-miterlimit:10;stroke-dasharray:none;stroke-opacity:1"
           d="m 285.537,326.598 h 1.66 v -4.283 h -1.66 z" /><g
           transform="translate(314.8574,352.2306)"
           id="g94"><path
             id="path96"
             style="fill:#facf39;fill-opacity:1;fill-rule:nonzero;stroke:none"
             d="M 0,0 -5.578,-4.549 H -7.637 L -2.523,0 Z m -2.191,-20.221 c -2.59,6.907 -3.918,10.227 -4.383,11.787 h -0.033 c -0.565,-1.759 -2.059,-5.877 -4.151,-11.787 z m -9.198,-1.66 -2.955,-8.035 h -1.825 l 8.532,23.242 h 2.125 L 3.387,-29.916 H 1.428 l -3.022,8.035 z" /></g><g
           transform="translate(314.8574,352.2306)"
           id="g98"><path
             id="path100"
             style="fill:none;stroke:#efc740;stroke-width:1;stroke-linecap:butt;stroke-linejoin:miter;stroke-miterlimit:10;stroke-dasharray:none;stroke-opacity:1"
             d="M 0,0 -5.578,-4.549 H -7.637 L -2.523,0 Z m -2.191,-20.221 c -2.59,6.907 -3.918,10.227 -4.383,11.787 h -0.033 c -0.565,-1.759 -2.059,-5.877 -4.151,-11.787 z m -9.198,-1.66 -2.955,-8.035 h -1.825 l 8.532,23.242 h 2.125 L 3.387,-29.916 H 1.428 l -3.022,8.035 z" /></g><g
           transform="translate(323.1299,345.5568)"
           id="g102"><path
             id="path104"
             style="fill:#facf39;fill-opacity:1;fill-rule:nonzero;stroke:none"
             d="m 0,0 v -14.078 c 0,-6.176 3.486,-7.77 6.773,-7.77 3.885,0 6.774,1.627 6.774,7.77 V 0 h 1.826 v -13.979 c 0,-7.271 -3.852,-9.529 -8.666,-9.529 -4.582,0 -8.566,2.49 -8.566,9.231 V 0 Z" /></g><g
           transform="translate(323.1299,345.5568)"
           id="g106"><path
             id="path108"
             style="fill:none;stroke:#efc740;stroke-width:1;stroke-linecap:butt;stroke-linejoin:miter;stroke-miterlimit:10;stroke-dasharray:none;stroke-opacity:1"
             d="m 0,0 v -14.078 c 0,-6.176 3.486,-7.77 6.773,-7.77 3.885,0 6.774,1.627 6.774,7.77 V 0 h 1.826 v -13.979 c 0,-7.271 -3.852,-9.529 -8.666,-9.529 -4.582,0 -8.566,2.49 -8.566,9.231 V 0 Z" /></g><g
           transform="translate(346.8076,323.9747)"
           id="g110"><path
             id="path112"
             style="fill:#facf39;fill-opacity:1;fill-rule:nonzero;stroke:none"
             d="m 0,0 h 5.611 c 6.143,0 9.164,4.316 9.164,10.061 0,5.113 -2.722,9.861 -9.164,9.861 H 0 Z M -1.793,21.582 H 5.91 c 6.375,0 10.791,-4.449 10.791,-11.422 0,-6.939 -4.316,-11.82 -10.824,-11.82 h -7.67 z" /></g><g
           transform="translate(346.8076,323.9747)"
           id="g114"><path
             id="path116"
             style="fill:none;stroke:#efc740;stroke-width:1;stroke-linecap:butt;stroke-linejoin:miter;stroke-miterlimit:10;stroke-dasharray:none;stroke-opacity:1"
             d="m 0,0 h 5.611 c 6.143,0 9.164,4.316 9.164,10.061 0,5.113 -2.722,9.861 -9.164,9.861 H 0 Z M -1.793,21.582 H 5.91 c 6.375,0 10.791,-4.449 10.791,-11.422 0,-6.939 -4.316,-11.82 -10.824,-11.82 h -7.67 z" /></g><path
           id="path118"
           style="fill:#facf39;fill-opacity:1;fill-rule:nonzero;stroke:#efc740;stroke-width:1;stroke-linecap:butt;stroke-linejoin:miter;stroke-miterlimit:10;stroke-dasharray:none;stroke-opacity:1"
           d="m 370.42,322.315 h -1.793 v 23.242 h 1.793 z" /><g
           transform="translate(377.4609,334.0353)"
           id="g120"><path
             id="path122"
             style="fill:#facf39;fill-opacity:1;fill-rule:nonzero;stroke:none"
             d="m 0,0 c 0,-5.346 2.955,-10.393 8.533,-10.393 6.01,0 8.533,4.914 8.533,10.426 0,5.412 -2.855,10.16 -8.466,10.16 C 2.623,10.193 0,5.246 0,0 m 18.992,0.066 c 0,-6.341 -3.387,-12.119 -10.558,-12.119 -6.541,0 -10.36,5.28 -10.36,11.953 0,6.575 3.686,11.954 10.592,11.954 6.375,0 10.326,-5.014 10.326,-11.788" /></g><g
           transform="translate(377.4609,334.0353)"
           id="g124"><path
             id="path126"
             style="fill:none;stroke:#efc740;stroke-width:1;stroke-linecap:butt;stroke-linejoin:miter;stroke-miterlimit:10;stroke-dasharray:none;stroke-opacity:1"
             d="m 0,0 c 0,-5.346 2.955,-10.393 8.533,-10.393 6.01,0 8.533,4.914 8.533,10.426 0,5.412 -2.855,10.16 -8.466,10.16 C 2.623,10.193 0,5.246 0,0 Z m 18.992,0.066 c 0,-6.341 -3.387,-12.119 -10.558,-12.119 -6.541,0 -10.36,5.28 -10.36,11.953 0,6.575 3.686,11.954 10.592,11.954 6.375,0 10.326,-5.014 10.326,-11.788 z" /></g><g
           transform="translate(429.0986,337.256)"
           id="g128"><path
             id="path130"
             style="fill:#facf39;fill-opacity:1;fill-rule:nonzero;stroke:none"
             d="m 0,0 -5.777,-8.965 c -2.823,-4.349 -4.848,-6.308 -8.567,-6.308 -3.785,0 -6.01,3.021 -6.01,5.91 0,2.822 1.295,4.98 6.209,7.636 3.387,2.192 4.649,3.122 4.649,5.247 0,1.826 -1.162,3.585 -3.387,3.585 -2.092,0 -3.553,-1.294 -3.553,-3.718 0,-1.494 1.03,-2.889 3.022,-4.782 L 0.332,-14.941 h -2.49 l -12.551,12.384 c -2.158,2.059 -3.42,3.586 -3.42,5.944 0,2.623 1.76,5.246 5.313,5.246 2.988,0 5.046,-2.258 5.046,-5.113 0,-2.258 -1.228,-3.719 -5.312,-6.243 -4.682,-2.656 -5.479,-4.283 -5.479,-6.507 0,-2.391 2.059,-4.416 4.217,-4.416 2.69,0 4.483,0.929 7.471,5.71 L -1.926,0 Z" /></g><g
           transform="translate(429.0986,337.256)"
           id="g132"><path
             id="path134"
             style="fill:none;stroke:#efc740;stroke-width:1;stroke-linecap:butt;stroke-linejoin:miter;stroke-miterlimit:10;stroke-dasharray:none;stroke-opacity:1"
             d="m 0,0 -5.777,-8.965 c -2.823,-4.349 -4.848,-6.308 -8.567,-6.308 -3.785,0 -6.01,3.021 -6.01,5.91 0,2.822 1.295,4.98 6.209,7.636 3.387,2.192 4.649,3.122 4.649,5.247 0,1.826 -1.162,3.585 -3.387,3.585 -2.092,0 -3.553,-1.294 -3.553,-3.718 0,-1.494 1.03,-2.889 3.022,-4.782 L 0.332,-14.941 h -2.49 l -12.551,12.384 c -2.158,2.059 -3.42,3.586 -3.42,5.944 0,2.623 1.76,5.246 5.313,5.246 2.988,0 5.046,-2.258 5.046,-5.113 0,-2.258 -1.228,-3.719 -5.312,-6.243 -4.682,-2.656 -5.479,-4.283 -5.479,-6.507 0,-2.391 2.059,-4.416 4.217,-4.416 2.69,0 4.483,0.929 7.471,5.71 L -1.926,0 Z" /></g><g
           transform="translate(448.5625,322.3146)"
           id="g136"><path
             id="path138"
             style="fill:#facf39;fill-opacity:1;fill-rule:nonzero;stroke:none"
             d="m 0,0 -8.633,23.242 h 1.926 L -2.191,11.09 C -0.896,7.57 0.564,3.686 1.062,1.727 h 0.067 c 0.498,1.726 2.092,5.81 3.387,9.23 L 9.197,23.242 H 11.09 L 2.125,0 Z" /></g><g
           transform="translate(448.5625,322.3146)"
           id="g140"><path
             id="path142"
             style="fill:none;stroke:#efc740;stroke-width:1;stroke-linecap:butt;stroke-linejoin:miter;stroke-miterlimit:10;stroke-dasharray:none;stroke-opacity:1"
             d="m 0,0 -8.633,23.242 h 1.926 L -2.191,11.09 C -0.896,7.57 0.564,3.686 1.062,1.727 h 0.067 c 0.498,1.726 2.092,5.81 3.387,9.23 L 9.197,23.242 H 11.09 L 2.125,0 Z" /></g><path
           id="path144"
           style="fill:#facf39;fill-opacity:1;fill-rule:nonzero;stroke:none"
           d="m 465.4,322.315 h -1.793 v 23.242 h 1.793 z m 5.711,29.916 -5.578,-4.549 h -2.058 l 5.113,4.549 z" /><path
           id="path146"
           style="fill:none;stroke:#efc740;stroke-width:1;stroke-linecap:butt;stroke-linejoin:miter;stroke-miterlimit:10;stroke-dasharray:none;stroke-opacity:1"
           d="m 465.4,322.315 h -1.793 v 23.242 h 1.793 z m 5.711,29.916 -5.578,-4.549 h -2.058 l 5.113,4.549 z" /><g
           transform="translate(474.0352,323.9747)"
           id="g148"><path
             id="path150"
             style="fill:#facf39;fill-opacity:1;fill-rule:nonzero;stroke:none"
             d="m 0,0 h 5.611 c 6.143,0 9.164,4.316 9.164,10.061 0,5.113 -2.722,9.861 -9.164,9.861 H 0 Z M -1.793,21.582 H 5.91 c 6.375,0 10.791,-4.449 10.791,-11.422 0,-6.939 -4.316,-11.82 -10.824,-11.82 h -7.67 z" /></g><g
           transform="translate(474.0352,323.9747)"
           id="g152"><path
             id="path154"
             style="fill:none;stroke:#efc740;stroke-width:1;stroke-linecap:butt;stroke-linejoin:miter;stroke-miterlimit:10;stroke-dasharray:none;stroke-opacity:1"
             d="m 0,0 h 5.611 c 6.143,0 9.164,4.316 9.164,10.061 0,5.113 -2.722,9.861 -9.164,9.861 H 0 Z M -1.793,21.582 H 5.91 c 6.375,0 10.791,-4.449 10.791,-11.422 0,-6.939 -4.316,-11.82 -10.824,-11.82 h -7.67 z" /></g><g
           transform="translate(509.501,333.7365)"
           id="g156"><path
             id="path158"
             style="fill:#facf39;fill-opacity:1;fill-rule:nonzero;stroke:none"
             d="M 0,0 H -11.854 V -9.762 H 1.129 l -0.266,-1.66 H -13.646 V 11.82 H 0.598 V 10.16 H -11.854 V 1.66 L 0,1.66 Z" /></g><g
           transform="translate(509.501,333.7365)"
           id="g160"><path
             id="path162"
             style="fill:none;stroke:#efc740;stroke-width:1;stroke-linecap:butt;stroke-linejoin:miter;stroke-miterlimit:10;stroke-dasharray:none;stroke-opacity:1"
             d="M 0,0 H -11.854 V -9.762 H 1.129 l -0.266,-1.66 H -13.646 V 11.82 H 0.598 V 10.16 H -11.854 V 1.66 L 0,1.66 Z" /></g><g
           transform="translate(515.6143,334.0353)"
           id="g164"><path
             id="path166"
             style="fill:#facf39;fill-opacity:1;fill-rule:nonzero;stroke:none"
             d="m 0,0 c 0,-5.346 2.955,-10.393 8.533,-10.393 6.01,0 8.533,4.914 8.533,10.426 0,5.412 -2.855,10.16 -8.466,10.16 C 2.623,10.193 0,5.246 0,0 m 18.992,0.066 c 0,-6.341 -3.387,-12.119 -10.558,-12.119 -6.541,0 -10.36,5.28 -10.36,11.953 0,6.575 3.686,11.954 10.592,11.954 6.375,0 10.326,-5.014 10.326,-11.788" /></g><g
           transform="translate(515.6143,334.0353)"
           id="g168"><path
             id="path170"
             style="fill:none;stroke:#efc740;stroke-width:1;stroke-linecap:butt;stroke-linejoin:miter;stroke-miterlimit:10;stroke-dasharray:none;stroke-opacity:1"
             d="m 0,0 c 0,-5.346 2.955,-10.393 8.533,-10.393 6.01,0 8.533,4.914 8.533,10.426 0,5.412 -2.855,10.16 -8.466,10.16 C 2.623,10.193 0,5.246 0,0 Z m 18.992,0.066 c 0,-6.341 -3.387,-12.119 -10.558,-12.119 -6.541,0 -10.36,5.28 -10.36,11.953 0,6.575 3.686,11.954 10.592,11.954 6.375,0 10.326,-5.014 10.326,-11.788 z" /></g><g
           transform="translate(85.6533,398.4093)"
           id="g172"><path
             id="path174"
             style="fill:#4b4a4a;fill-opacity:1;fill-rule:nonzero;stroke:none"
             d="m 0,0 h 10.133 c 6.617,0 9.168,2.517 9.168,7.191 0,4.546 -2.969,7.091 -8.88,7.091 H 0 Z m 0,-9.62 v -22.37 h -11.81 v 55.892 h 24.56 c 12.187,0 18.747,-6.713 18.747,-15.344 0,-7.501 -4.082,-11.561 -8.122,-13.225 2.768,-1.021 6.945,-3.903 6.945,-13.908 v -2.76 c 0,-3.758 0.033,-8.038 0.801,-10.655 H 19.668 c -0.982,2.431 -1.168,6.615 -1.168,12.55 v 0.817 c 0,6.111 -1.543,9.003 -10.551,9.003 z" /></g><g
           transform="translate(137.5557,394.6085)"
           id="g176"><path
             id="path178"
             style="fill:#4b4a4a;fill-opacity:1;fill-rule:nonzero;stroke:none"
             d="m 0,0 c 0,-10.911 4.789,-19.166 14.697,-19.166 10.749,0 14.555,9.001 14.555,18.962 0,10.573 -4.332,18.884 -14.75,18.884 C 4.406,18.68 0,10.882 0,0 M 41.733,-0.052 C 41.733,-15.607 32.393,-29 14.24,-29 c -17.541,0 -26.721,12.747 -26.721,28.757 0,16.265 10.14,28.757 27.502,28.757 16.351,0 26.712,-11.456 26.712,-28.566" /></g><g
           transform="translate(201.9429,376.1818)"
           id="g180"><path
             id="path182"
             style="fill:#4b4a4a;fill-opacity:1;fill-rule:nonzero;stroke:none"
             d="m 0,0 h 9.062 c 10.716,0 15.453,7.97 15.453,18.855 0,9.13 -4.436,17.512 -15.382,17.512 l -9.133,0 z m -12.085,46.13 h 22.162 c 16.279,0 26.919,-10.721 26.919,-27.246 0,-16.301 -10.325,-28.647 -27.428,-28.647 h -21.653 z" /></g><g
           transform="translate(261.3359,398.4093)"
           id="g184"><path
             id="path186"
             style="fill:#4b4a4a;fill-opacity:1;fill-rule:nonzero;stroke:none"
             d="m 0,0 h 10.132 c 6.618,0 9.169,2.517 9.169,7.191 0,4.546 -2.97,7.091 -8.881,7.091 H 0 Z m 0,-9.62 v -22.37 h -11.81 v 55.892 h 24.56 c 12.186,0 18.747,-6.713 18.747,-15.344 0,-7.501 -4.083,-11.561 -8.123,-13.225 2.769,-1.021 6.945,-3.903 6.945,-13.908 v -2.76 c 0,-3.758 0.033,-8.038 0.801,-10.655 H 19.667 c -0.982,2.431 -1.167,6.615 -1.167,12.55 v 0.817 c 0,6.111 -1.543,9.003 -10.551,9.003 z" /></g><path
           id="path188"
           style="fill:#4b4a4a;fill-opacity:1;fill-rule:nonzero;stroke:none"
           d="M 315.685,366.419 H 303.6 v 55.893 h 12.085 z" /><g
           transform="translate(377.6045,366.4191)"
           id="g190"><path
             id="path192"
             style="fill:#4b4a4a;fill-opacity:1;fill-rule:nonzero;stroke:none"
             d="m 0,0 h -8.858 c -0.467,1.719 -0.772,3.639 -0.924,5.512 -3.098,-4.177 -8.556,-6.446 -16.323,-6.446 -16.224,0 -25.289,12.261 -25.289,28.18 0,16.801 9.775,29.457 27.393,29.457 14.383,0 22.847,-8.117 24.202,-17.647 h -12.086 c -1.147,3.744 -4.1,8.17 -12.278,8.17 -11.476,0 -14.749,-9.598 -14.749,-19.452 0,-9.617 3.744,-19.087 14.824,-19.087 10.333,0 12.236,7.171 12.236,12.172 v 0.506 h -12.255 v 9.906 l 24.107,0 z" /></g><g
           transform="translate(401.0488,422.3116)"
           id="g194"><path
             id="path196"
             style="fill:#4b4a4a;fill-opacity:1;fill-rule:nonzero;stroke:none"
             d="m 0,0 v -33.303 c 0,-10.725 5.515,-13.903 11.543,-13.903 6.915,0 11.257,3.758 11.257,13.903 V 0 h 12.095 v -32.703 c 0,-19.11 -11.189,-23.981 -23.515,-23.981 -12.614,0 -23.484,5.081 -23.484,23.75 l 0,32.934 z" /></g><g
           transform="translate(487.1729,390.5245)"
           id="g198"><path
             id="path200"
             style="fill:#4b4a4a;fill-opacity:1;fill-rule:nonzero;stroke:none"
             d="M 0,0 H -26.729 V -14.2 H 2.757 L 1.323,-24.105 H -38.458 V 31.787 H 1.174 V 21.882 H -26.729 V 9.906 L 0,9.906 Z" /></g><g
           transform="translate(507.7314,382.8019)"
           id="g202"><path
             id="path204"
             style="fill:#4b4a4a;fill-opacity:1;fill-rule:nonzero;stroke:none"
             d="m 0,0 c 1.274,-5.612 5.302,-8.073 11.77,-8.073 6.452,0 9.21,2.548 9.21,6.639 0,4.549 -2.694,6.524 -12.252,8.747 -15.21,3.572 -18.972,9.104 -18.972,16.65 0,9.742 7.288,16.357 20.518,16.357 14.84,0 20.752,-7.977 21.553,-16.153 H 19.651 c -0.584,3.44 -2.486,7.176 -9.691,7.176 -4.905,0 -7.865,-2.027 -7.865,-5.995 0,-3.887 2.373,-5.463 11.403,-7.557 16.257,-3.83 19.821,-9.878 19.821,-17.758 0,-10.206 -7.721,-17.207 -22.497,-17.207 -14.186,0 -21.659,6.985 -22.999,17.174 z" /></g></g></g><g
       id="g206"><g
         clip-path="url(#clipPath212)"
         id="g208"><g
           id="g214"><g
             id="g216"><path
               id="path228"
               style="fill:url(#linearGradient226);stroke:none"
               d="m 201.404,549.634 c 0,-59.202 47.993,-107.196 107.194,-107.196 v 0 c 59.203,0 107.196,47.994 107.196,107.196 v 0 c 0,59.202 -47.993,107.195 -107.196,107.195 v 0 c -59.201,0 -107.194,-47.993 -107.194,-107.195" /></g></g></g></g><g
       id="g230"><g
         clip-path="url(#clipPath236)"
         id="g232"><g
           transform="translate(201.4038,549.6334)"
           id="g238"><path
             id="path246"
             style="fill:none;stroke:url(#linearGradient244);stroke-width:3;stroke-linecap:butt;stroke-linejoin:miter;stroke-miterlimit:10;stroke-dasharray:none;stroke-opacity:1"
             d="m 0,0 c 0,-59.202 47.993,-107.195 107.195,-107.195 59.202,0 107.195,47.993 107.195,107.195 0,59.202 -47.993,107.195 -107.195,107.195 C 47.993,107.195 0,59.202 0,0 Z" /></g></g></g><g
       id="g248"><g
         clip-path="url(#clipPath254)"
         id="g250"><g
           id="g256"><g
             id="g258"><path
               id="path268"
               style="fill:url(#linearGradient266);stroke:none"
               d="m 300.078,517.693 44.502,44.502 -44.502,45.697 z" /></g></g></g></g><g
       id="g270"><g
         clip-path="url(#clipPath276)"
         id="g272"><g
           transform="translate(300.0781,607.8927)"
           id="g278"><path
             id="path286"
             style="fill:none;stroke:url(#linearGradient284);stroke-width:3;stroke-linecap:butt;stroke-linejoin:miter;stroke-miterlimit:10;stroke-dasharray:none;stroke-opacity:1"
             d="m 0,0 v -90.2 l 44.502,44.502 z" /></g><g
           transform="translate(296.9385,503.0128)"
           id="g288"><path
             id="path290"
             style="fill:none;stroke:#858585;stroke-width:1;stroke-linecap:butt;stroke-linejoin:miter;stroke-miterlimit:10;stroke-dasharray:none;stroke-opacity:1"
             d="M 0,0 58.739,58.74 0,119.059" /></g></g></g><g
       id="g292"><g
         clip-path="url(#clipPath298)"
         id="g294"><g
           id="g300"><g
             id="g302"><path
               id="path310"
               style="fill:url(#linearGradient308);stroke:none"
               d="m 358.953,481.649 -34.4,47.147 z" /></g></g></g></g><g
       id="g312"><g
         clip-path="url(#clipPath318)"
         id="g314"><g
           transform="translate(324.5527,528.796)"
           id="g320"><path
             id="path322"
             style="fill:none;stroke:#858585;stroke-width:1;stroke-linecap:butt;stroke-linejoin:miter;stroke-miterlimit:10;stroke-dasharray:none;stroke-opacity:1"
             d="M 0,0 34.4,-47.147" /></g></g></g><g
       id="g324"><g
         clip-path="url(#clipPath330)"
         id="g326"><g
           id="g332"><g
             id="g334"><path
               id="path342"
               style="fill:url(#linearGradient340);stroke:none"
               d="m 276.794,476.12 h 11.329 v 145.951 h -11.329 z" /></g></g></g></g><g
       id="g344"><g
         clip-path="url(#clipPath350)"
         id="g346"><path
           id="path352"
           style="fill:none;stroke:#3c3d3d;stroke-width:1;stroke-linecap:butt;stroke-linejoin:miter;stroke-miterlimit:10;stroke-dasharray:none;stroke-opacity:1"
           d="m 288.124,476.12 h -11.33 v 145.952 h 11.33 z" /></g></g></g></svg>